<mxfile host="65bd71144e">
    <diagram id="scIXm70iIdzUnEMrQwMk" name="Page-1">
        <mxGraphModel dx="722" dy="626" grid="1" gridSize="10" guides="1" tooltips="1" connect="1" arrows="1" fold="1" page="1" pageScale="1" pageWidth="827" pageHeight="1169" math="0" shadow="0">
            <root>
                <mxCell id="0"/>
                <mxCell id="1" parent="0"/>
                <mxCell id="3" value="现货证券流程图" style="swimlane;childLayout=stackLayout;resizeParent=1;resizeParentMax=0;startSize=20;html=1;" parent="1" vertex="1">
                    <mxGeometry x="170" y="80" width="750" height="400" as="geometry"/>
                </mxCell>
                <mxCell id="4" value="发行人" style="swimlane;startSize=20;html=1;" parent="3" vertex="1">
                    <mxGeometry y="20" width="140" height="380" as="geometry">
                        <mxRectangle y="20" width="40" height="460" as="alternateBounds"/>
                    </mxGeometry>
                </mxCell>
                <mxCell id="10" value="股票B增加减少流通股票（增发、配股...）" style="whiteSpace=wrap;html=1;" parent="4" vertex="1">
                    <mxGeometry x="21" y="160" width="99" height="60" as="geometry"/>
                </mxCell>
                <mxCell id="9" value="股票A上市" style="whiteSpace=wrap;html=1;" parent="4" vertex="1">
                    <mxGeometry x="21" y="70" width="99" height="40" as="geometry"/>
                </mxCell>
                <mxCell id="5" value="证监会" style="swimlane;startSize=20;html=1;" parent="3" vertex="1">
                    <mxGeometry x="140" y="20" width="120" height="380" as="geometry"/>
                </mxCell>
                <mxCell id="16" value="" style="shape=actor;whiteSpace=wrap;html=1;" parent="5" vertex="1">
                    <mxGeometry x="39.999999999999545" y="110" width="40" height="60" as="geometry"/>
                </mxCell>
                <mxCell id="6" value="交易所" style="swimlane;startSize=20;html=1;" parent="3" vertex="1">
                    <mxGeometry x="260" y="20" width="130" height="380" as="geometry"/>
                </mxCell>
                <mxCell id="22" value="" style="whiteSpace=wrap;html=1;" parent="6" vertex="1">
                    <mxGeometry x="25" y="140" width="80" height="220" as="geometry"/>
                </mxCell>
                <mxCell id="25" value="增加到可交易池子" style="edgeStyle=none;html=1;" parent="6" source="24" target="22" edge="1">
                    <mxGeometry relative="1" as="geometry"/>
                </mxCell>
                <mxCell id="24" value="股票A上市" style="whiteSpace=wrap;html=1;fontSize=10;" parent="6" vertex="1">
                    <mxGeometry x="25" y="40" width="80" height="40" as="geometry"/>
                </mxCell>
                <mxCell id="27" value="股票B" style="whiteSpace=wrap;html=1;fontSize=10;" parent="6" vertex="1">
                    <mxGeometry x="25" y="200" width="80" height="40" as="geometry"/>
                </mxCell>
                <mxCell id="31" value="股票C" style="whiteSpace=wrap;html=1;fontSize=10;" parent="6" vertex="1">
                    <mxGeometry x="25" y="250" width="80" height="40" as="geometry"/>
                </mxCell>
                <mxCell id="32" value="股票D" style="whiteSpace=wrap;html=1;fontSize=10;" parent="6" vertex="1">
                    <mxGeometry x="25" y="300" width="80" height="40" as="geometry"/>
                </mxCell>
                <mxCell id="33" value="流通证券代码" style="text;html=1;strokeColor=none;fillColor=none;align=center;verticalAlign=middle;whiteSpace=wrap;rounded=0;" parent="6" vertex="1">
                    <mxGeometry x="34.999999999999545" y="150" width="60" height="30" as="geometry"/>
                </mxCell>
                <mxCell id="7" value="证券公司" style="swimlane;startSize=20;html=1;" parent="3" vertex="1">
                    <mxGeometry x="390" y="20" width="120" height="380" as="geometry"/>
                </mxCell>
                <mxCell id="44" value="" style="group" parent="7" vertex="1" connectable="0">
                    <mxGeometry x="29.999999999999545" y="60" width="60" height="100" as="geometry"/>
                </mxCell>
                <mxCell id="34" value="" style="shape=actor;whiteSpace=wrap;html=1;" parent="44" vertex="1">
                    <mxGeometry x="10" y="40" width="40" height="60" as="geometry"/>
                </mxCell>
                <mxCell id="43" value="券商A" style="text;html=1;strokeColor=none;fillColor=none;align=center;verticalAlign=middle;whiteSpace=wrap;rounded=0;fontSize=10;" parent="44" vertex="1">
                    <mxGeometry width="60" height="30" as="geometry"/>
                </mxCell>
                <mxCell id="45" value="" style="group" parent="7" vertex="1" connectable="0">
                    <mxGeometry x="29.999999999999545" y="190" width="60" height="100" as="geometry"/>
                </mxCell>
                <mxCell id="46" value="" style="shape=actor;whiteSpace=wrap;html=1;" parent="45" vertex="1">
                    <mxGeometry x="10" y="40" width="40" height="60" as="geometry"/>
                </mxCell>
                <mxCell id="47" value="券商B" style="text;html=1;strokeColor=none;fillColor=none;align=center;verticalAlign=middle;whiteSpace=wrap;rounded=0;fontSize=10;" parent="45" vertex="1">
                    <mxGeometry width="60" height="30" as="geometry"/>
                </mxCell>
                <mxCell id="8" value="投资人" style="swimlane;startSize=20;html=1;" parent="3" vertex="1">
                    <mxGeometry x="510" y="20" width="120" height="380" as="geometry"/>
                </mxCell>
                <mxCell id="38" value="Actor" style="shape=umlActor;verticalLabelPosition=bottom;verticalAlign=top;html=1;outlineConnect=0;fontSize=10;" parent="8" vertex="1">
                    <mxGeometry x="44.999999999999545" y="80" width="30" height="60" as="geometry"/>
                </mxCell>
                <mxCell id="39" value="Actor" style="shape=umlActor;verticalLabelPosition=bottom;verticalAlign=top;html=1;outlineConnect=0;fontSize=10;" parent="8" vertex="1">
                    <mxGeometry x="44.999999999999545" y="250" width="30" height="60" as="geometry"/>
                </mxCell>
                <mxCell id="90" value="中国登记结算公司" style="swimlane;startSize=20;html=1;" vertex="1" parent="3">
                    <mxGeometry x="630" y="20" width="120" height="380" as="geometry"/>
                </mxCell>
                <mxCell id="93" value="证券账户A" style="rounded=1;whiteSpace=wrap;html=1;" vertex="1" parent="90">
                    <mxGeometry x="10" y="80" width="100" height="50" as="geometry"/>
                </mxCell>
                <mxCell id="94" value="证券账户B" style="rounded=1;whiteSpace=wrap;html=1;" vertex="1" parent="90">
                    <mxGeometry x="10" y="255" width="100" height="50" as="geometry"/>
                </mxCell>
                <mxCell id="17" style="edgeStyle=none;html=1;entryX=0.1;entryY=0.5;entryDx=0;entryDy=0;entryPerimeter=0;" parent="3" source="9" target="16" edge="1">
                    <mxGeometry relative="1" as="geometry"/>
                </mxCell>
                <mxCell id="20" value="检查上市资格" style="edgeLabel;html=1;align=center;verticalAlign=middle;resizable=0;points=[];" parent="17" vertex="1" connectable="0">
                    <mxGeometry x="0.1372" y="-2" relative="1" as="geometry">
                        <mxPoint as="offset"/>
                    </mxGeometry>
                </mxCell>
                <mxCell id="18" style="edgeStyle=none;html=1;entryX=0;entryY=0.75;entryDx=0;entryDy=0;" parent="3" source="10" target="16" edge="1">
                    <mxGeometry relative="1" as="geometry"/>
                </mxCell>
                <mxCell id="21" value="核验信息" style="edgeLabel;html=1;align=center;verticalAlign=middle;resizable=0;points=[];" parent="18" vertex="1" connectable="0">
                    <mxGeometry x="-0.007" y="-2" relative="1" as="geometry">
                        <mxPoint as="offset"/>
                    </mxGeometry>
                </mxCell>
                <mxCell id="26" style="edgeStyle=none;html=1;exitX=1;exitY=0.75;exitDx=0;exitDy=0;entryX=0;entryY=0.5;entryDx=0;entryDy=0;" parent="3" source="16" target="24" edge="1">
                    <mxGeometry relative="1" as="geometry"/>
                </mxCell>
                <mxCell id="30" value="增加股票/标的" style="edgeLabel;html=1;align=center;verticalAlign=middle;resizable=0;points=[];" parent="26" vertex="1" connectable="0">
                    <mxGeometry x="-0.2055" y="-1" relative="1" as="geometry">
                        <mxPoint y="1" as="offset"/>
                    </mxGeometry>
                </mxCell>
                <mxCell id="29" value="增加或减少" style="edgeStyle=none;html=1;exitX=1;exitY=0.75;exitDx=0;exitDy=0;entryX=0;entryY=0.5;entryDx=0;entryDy=0;" parent="3" source="16" target="27" edge="1">
                    <mxGeometry relative="1" as="geometry"/>
                </mxCell>
                <mxCell id="36" value="" style="edgeStyle=none;html=1;fontSize=10;exitX=1;exitY=0;exitDx=0;exitDy=0;dashed=1;" parent="3" source="27" target="34" edge="1">
                    <mxGeometry relative="1" as="geometry"/>
                </mxCell>
                <mxCell id="37" value="授权销售" style="edgeLabel;html=1;align=center;verticalAlign=middle;resizable=0;points=[];fontSize=10;" parent="36" vertex="1" connectable="0">
                    <mxGeometry x="0.2615" relative="1" as="geometry">
                        <mxPoint y="1" as="offset"/>
                    </mxGeometry>
                </mxCell>
                <mxCell id="49" value="授权销售" style="edgeStyle=none;html=1;exitX=1;exitY=0;exitDx=0;exitDy=0;entryX=0;entryY=0.75;entryDx=0;entryDy=0;fontSize=10;dashed=1;" parent="3" source="31" target="46" edge="1">
                    <mxGeometry relative="1" as="geometry"/>
                </mxCell>
                <mxCell id="95" style="edgeStyle=none;html=1;exitX=0.5;exitY=0.5;exitDx=0;exitDy=0;exitPerimeter=0;entryX=-0.01;entryY=0.64;entryDx=0;entryDy=0;entryPerimeter=0;dashed=1;" edge="1" parent="3" source="38" target="93">
                    <mxGeometry relative="1" as="geometry"/>
                </mxCell>
                <mxCell id="96" style="edgeStyle=none;html=1;exitX=1;exitY=0.3333333333333333;exitDx=0;exitDy=0;exitPerimeter=0;entryX=0;entryY=0.25;entryDx=0;entryDy=0;dashed=1;" edge="1" parent="3" source="39" target="94">
                    <mxGeometry relative="1" as="geometry"/>
                </mxCell>
                <mxCell id="51" style="edgeStyle=none;html=1;exitX=0;exitY=0.3333333333333333;exitDx=0;exitDy=0;exitPerimeter=0;fontSize=10;" parent="1" source="38" edge="1">
                    <mxGeometry relative="1" as="geometry">
                        <mxPoint x="640" y="240" as="targetPoint"/>
                    </mxGeometry>
                </mxCell>
                <mxCell id="53" value="委托买入、卖出" style="edgeLabel;html=1;align=center;verticalAlign=middle;resizable=0;points=[];" vertex="1" connectable="0" parent="51">
                    <mxGeometry x="-0.2374" y="-1" relative="1" as="geometry">
                        <mxPoint as="offset"/>
                    </mxGeometry>
                </mxCell>
                <mxCell id="52" style="edgeStyle=none;html=1;exitX=0;exitY=0.3333333333333333;exitDx=0;exitDy=0;exitPerimeter=0;fontSize=10;" parent="1" source="39" edge="1">
                    <mxGeometry relative="1" as="geometry">
                        <mxPoint x="640" y="370" as="targetPoint"/>
                    </mxGeometry>
                </mxCell>
                <mxCell id="54" value="委托买入、卖出" style="edgeLabel;html=1;align=center;verticalAlign=middle;resizable=0;points=[];" vertex="1" connectable="0" parent="52">
                    <mxGeometry x="-0.2235" y="-2" relative="1" as="geometry">
                        <mxPoint as="offset"/>
                    </mxGeometry>
                </mxCell>
                <mxCell id="55" value="两融证券流向图" style="swimlane;childLayout=stackLayout;resizeParent=1;resizeParentMax=0;startSize=20;html=1;" vertex="1" parent="1">
                    <mxGeometry x="290" y="510" width="490" height="400" as="geometry"/>
                </mxCell>
                <mxCell id="61" value="交易所" style="swimlane;startSize=20;html=1;" vertex="1" parent="55">
                    <mxGeometry y="20" width="130" height="380" as="geometry"/>
                </mxCell>
                <mxCell id="62" value="" style="whiteSpace=wrap;html=1;" vertex="1" parent="61">
                    <mxGeometry x="25" y="70" width="80" height="220" as="geometry"/>
                </mxCell>
                <mxCell id="65" value="股票B" style="whiteSpace=wrap;html=1;fontSize=10;" vertex="1" parent="61">
                    <mxGeometry x="25" y="130" width="80" height="40" as="geometry"/>
                </mxCell>
                <mxCell id="66" value="股票C" style="whiteSpace=wrap;html=1;fontSize=10;" vertex="1" parent="61">
                    <mxGeometry x="25" y="180" width="80" height="40" as="geometry"/>
                </mxCell>
                <mxCell id="67" value="股票D" style="whiteSpace=wrap;html=1;fontSize=10;" vertex="1" parent="61">
                    <mxGeometry x="25" y="230" width="80" height="40" as="geometry"/>
                </mxCell>
                <mxCell id="68" value="流通证券代码" style="text;html=1;strokeColor=none;fillColor=none;align=center;verticalAlign=middle;whiteSpace=wrap;rounded=0;" vertex="1" parent="61">
                    <mxGeometry x="34.999999999999545" y="80" width="60" height="30" as="geometry"/>
                </mxCell>
                <mxCell id="69" value="证券公司" style="swimlane;startSize=20;html=1;" vertex="1" parent="55">
                    <mxGeometry x="130" y="20" width="120" height="380" as="geometry"/>
                </mxCell>
                <mxCell id="125" value="" style="group" vertex="1" connectable="0" parent="69">
                    <mxGeometry x="10" y="35" width="100" height="150" as="geometry"/>
                </mxCell>
                <mxCell id="122" value="" style="rounded=1;whiteSpace=wrap;html=1;" vertex="1" parent="125">
                    <mxGeometry width="100" height="150" as="geometry"/>
                </mxCell>
                <mxCell id="119" value="融资专户" style="whiteSpace=wrap;html=1;fontSize=10;" vertex="1" parent="125">
                    <mxGeometry x="16.666666666666664" y="50" width="66.66666666666666" height="40" as="geometry"/>
                </mxCell>
                <mxCell id="120" value="融券专户" style="whiteSpace=wrap;html=1;fontSize=10;" vertex="1" parent="125">
                    <mxGeometry x="16.666666666666664" y="100" width="66.66666666666666" height="40" as="geometry"/>
                </mxCell>
                <mxCell id="123" value="券商A" style="text;html=1;strokeColor=none;fillColor=none;align=center;verticalAlign=middle;whiteSpace=wrap;rounded=0;" vertex="1" parent="125">
                    <mxGeometry x="25" y="10" width="50" height="30" as="geometry"/>
                </mxCell>
                <mxCell id="76" value="投资人" style="swimlane;startSize=20;html=1;" vertex="1" parent="55">
                    <mxGeometry x="250" y="20" width="120" height="380" as="geometry"/>
                </mxCell>
                <mxCell id="77" value="Actor" style="shape=umlActor;verticalLabelPosition=bottom;verticalAlign=top;html=1;outlineConnect=0;fontSize=10;" vertex="1" parent="76">
                    <mxGeometry x="44.999999999999545" y="80" width="30" height="60" as="geometry"/>
                </mxCell>
                <mxCell id="78" value="Actor" style="shape=umlActor;verticalLabelPosition=bottom;verticalAlign=top;html=1;outlineConnect=0;fontSize=10;" vertex="1" parent="76">
                    <mxGeometry x="44.999999999999545" y="230" width="30" height="60" as="geometry"/>
                </mxCell>
                <mxCell id="97" value="中国登记结算公司" style="swimlane;startSize=20;html=1;" vertex="1" parent="55">
                    <mxGeometry x="370" y="20" width="120" height="380" as="geometry"/>
                </mxCell>
                <mxCell id="100" value="两融证券账户A" style="rounded=1;whiteSpace=wrap;html=1;" vertex="1" parent="97">
                    <mxGeometry x="10" y="85" width="100" height="50" as="geometry"/>
                </mxCell>
                <mxCell id="102" value="两融证券账户B" style="rounded=1;whiteSpace=wrap;html=1;" vertex="1" parent="97">
                    <mxGeometry x="10" y="235" width="100" height="50" as="geometry"/>
                </mxCell>
                <mxCell id="101" style="edgeStyle=none;html=1;exitX=0.5;exitY=0.5;exitDx=0;exitDy=0;exitPerimeter=0;entryX=0;entryY=0.5;entryDx=0;entryDy=0;dashed=1;" edge="1" parent="55" source="77" target="100">
                    <mxGeometry relative="1" as="geometry"/>
                </mxCell>
                <mxCell id="103" style="edgeStyle=none;html=1;exitX=0.5;exitY=0.5;exitDx=0;exitDy=0;exitPerimeter=0;entryX=0;entryY=0.5;entryDx=0;entryDy=0;dashed=1;" edge="1" parent="55" source="78" target="102">
                    <mxGeometry relative="1" as="geometry"/>
                </mxCell>
                <mxCell id="136" value="借资、还资" style="edgeStyle=none;html=1;exitX=1;exitY=0.5;exitDx=0;exitDy=0;entryX=0;entryY=1;entryDx=0;entryDy=0;entryPerimeter=0;startArrow=classic;startFill=1;" edge="1" parent="55" source="119" target="77">
                    <mxGeometry relative="1" as="geometry"/>
                </mxCell>
                <mxCell id="138" style="edgeStyle=none;html=1;exitX=0;exitY=0.3333333333333333;exitDx=0;exitDy=0;exitPerimeter=0;entryX=1;entryY=0.25;entryDx=0;entryDy=0;dashed=1;" edge="1" parent="55" source="77" target="122">
                    <mxGeometry relative="1" as="geometry"/>
                </mxCell>
                <mxCell id="139" value="买入、卖出" style="edgeLabel;html=1;align=center;verticalAlign=middle;resizable=0;points=[];" vertex="1" connectable="0" parent="138">
                    <mxGeometry x="-0.2145" y="3" relative="1" as="geometry">
                        <mxPoint as="offset"/>
                    </mxGeometry>
                </mxCell>
                <mxCell id="127" value="" style="group" vertex="1" connectable="0" parent="1">
                    <mxGeometry x="430" y="740" width="100" height="150" as="geometry"/>
                </mxCell>
                <mxCell id="128" value="" style="rounded=1;whiteSpace=wrap;html=1;" vertex="1" parent="127">
                    <mxGeometry width="100" height="150" as="geometry"/>
                </mxCell>
                <mxCell id="129" value="融资专户" style="whiteSpace=wrap;html=1;fontSize=10;" vertex="1" parent="127">
                    <mxGeometry x="16.666666666666664" y="50" width="66.66666666666666" height="40" as="geometry"/>
                </mxCell>
                <mxCell id="130" value="融券专户" style="whiteSpace=wrap;html=1;fontSize=10;" vertex="1" parent="127">
                    <mxGeometry x="16.666666666666664" y="100" width="66.66666666666666" height="40" as="geometry"/>
                </mxCell>
                <mxCell id="131" value="券商B" style="text;html=1;strokeColor=none;fillColor=none;align=center;verticalAlign=middle;whiteSpace=wrap;rounded=0;" vertex="1" parent="127">
                    <mxGeometry x="25" y="10" width="50" height="30" as="geometry"/>
                </mxCell>
                <mxCell id="137" style="edgeStyle=none;html=1;exitX=1;exitY=0.5;exitDx=0;exitDy=0;startArrow=classic;startFill=1;" edge="1" parent="1" source="120">
                    <mxGeometry relative="1" as="geometry">
                        <mxPoint x="580" y="670" as="targetPoint"/>
                    </mxGeometry>
                </mxCell>
                <mxCell id="140" value="借券、还券" style="edgeLabel;html=1;align=center;verticalAlign=middle;resizable=0;points=[];" vertex="1" connectable="0" parent="137">
                    <mxGeometry x="-0.013" y="-3" relative="1" as="geometry">
                        <mxPoint y="1" as="offset"/>
                    </mxGeometry>
                </mxCell>
                <mxCell id="141" style="edgeStyle=none;html=1;exitX=0;exitY=1;exitDx=0;exitDy=0;exitPerimeter=0;entryX=1;entryY=0.5;entryDx=0;entryDy=0;startArrow=classic;startFill=1;" edge="1" parent="1" source="78" target="129">
                    <mxGeometry relative="1" as="geometry"/>
                </mxCell>
                <mxCell id="145" value="借资、还资" style="edgeLabel;html=1;align=center;verticalAlign=middle;resizable=0;points=[];" vertex="1" connectable="0" parent="141">
                    <mxGeometry x="-0.054" y="1" relative="1" as="geometry">
                        <mxPoint as="offset"/>
                    </mxGeometry>
                </mxCell>
                <mxCell id="142" value="借券、还券" style="edgeStyle=none;html=1;exitX=0;exitY=1;exitDx=0;exitDy=0;exitPerimeter=0;entryX=1;entryY=0.5;entryDx=0;entryDy=0;startArrow=classic;startFill=1;" edge="1" parent="1" source="78" target="130">
                    <mxGeometry relative="1" as="geometry"/>
                </mxCell>
                <mxCell id="143" style="edgeStyle=none;html=1;exitX=0;exitY=0.3333333333333333;exitDx=0;exitDy=0;exitPerimeter=0;startArrow=none;startFill=0;dashed=1;" edge="1" parent="1" source="78">
                    <mxGeometry relative="1" as="geometry">
                        <mxPoint x="530" y="770" as="targetPoint"/>
                    </mxGeometry>
                </mxCell>
                <mxCell id="144" value="买入、卖出" style="edgeLabel;html=1;align=center;verticalAlign=middle;resizable=0;points=[];" vertex="1" connectable="0" parent="143">
                    <mxGeometry x="-0.0432" y="4" relative="1" as="geometry">
                        <mxPoint as="offset"/>
                    </mxGeometry>
                </mxCell>
            </root>
        </mxGraphModel>
    </diagram>
</mxfile>